PathFileType	4	(X/Y/Z)	/Users/niels/Desktop/University/Third Semester/Perception and Action/Exam/Gymnastics Motion Tracking/Code for Gym Tracking/Analyzed Data/Webcam_Backflip/id2002_1_trajectory_Sports2D/id2002_1_trajectory_Sports2D_px_person00.trc
DataRate	CameraRate	NumFrames	NumMarkers	Units	OrigDataRate	OrigDataStartFrame	OrigNumFrames
29.795918367346935	29.795918367346935	9	22	m	29.795918367346935	0	147
Frame#	Time	Hip			RHip			RKnee			RAnkle			RBigToe			RSmallToe			RHeel			LHip			LKnee			LAnkle			LBigToe			LSmallToe			LHeel			Neck			Head			Nose			RShoulder			RElbow			RWrist			LShoulder			LElbow			LWrist		
		X1	Y1	Z1	X2	Y2	Z2	X3	Y3	Z3	X4	Y4	Z4	X5	Y5	Z5	X6	Y6	Z6	X7	Y7	Z7	X8	Y8	Z8	X9	Y9	Z9	X10	Y10	Z10	X11	Y11	Z11	X12	Y12	Z12	X13	Y13	Z13	X14	Y14	Z14	X15	Y15	Z15	X16	Y16	Z16	X17	Y17	Z17	X18	Y18	Z18	X19	Y19	Z19	X20	Y20	Z20	X21	Y21	Z21	X22	Y22	Z22
0	0.0	0.9734954476983071	-0.591728250708141	0.0	0.9918540934014967	-0.5943323734233018	0.0	1.0102962778300164	-1.0065654285552754	0.0	1.0096229865200164	-1.0602192690093153	0.0	1.53666650390625	-1.0905761718750002	0.0	1.534264892578125	-1.0655229492187501	0.0	1.2592411745225325	-1.0718979654154908	0.0	0.9525042149931021	-0.6022052360688303	0.0	1.0023534036733082	-0.9882519596568461	0.0	1.0076151429148712	-1.0486381466277208	0.0	1.5178310546875	-1.002380859375	0.0	1.5208022460937505	-0.96375537109375	0.0	0.9620983753843534	-1.0782246215376388	0.0	1.0180906262931306	-0.1138978275929792	0.0	1.125763753813329	-0.00887791164242823	0.0	1.1388728268540762	-0.011511260181745933	0.0	1.0285927205261545	-0.1243957115526065	0.0	1.0784356968584834	-0.3974384383638476	0.0	1.259527607296632	-0.5523622248724341	0.0	0.9603299456413367	-0.14278390192107537	0.0	0.989252735127827	-0.3974398841760283	0.0	1.0601147724045026	-0.5549814135327857	0.0
1	0.03356164383561644	0.9815471648487305	-0.5958330006254221	0.0	0.9964073221843406	-0.5972863256620634	0.0	1.0098833568875771	-1.006871555773785	0.0	1.0058173323581963	-1.064710512442223	0.0	1.53666650390625	-1.0905761718750002	0.0	1.534264892578125	-1.0655229492187501	0.0	1.2592411403446697	-1.0718979546984257	0.0	0.9749816906133834	-0.6068292763546816	0.0	1.0095613860155705	-0.9887657954430554	0.0	1.0194127098441519	-1.0519264038288907	0.0	1.5178310546875	-1.002380859375	0.0	1.5208022460937505	-0.96375537109375	0.0	0.9620983557534222	-1.078224627699002	0.0	1.0161354062537777	-0.11958674190922342	0.0	1.115965174274772	-0.013702245569875674	0.0	1.1314249712174718	-0.01404002591699716	0.0	1.0169330377164734	-0.13021385151195286	0.0	1.0689934673561559	-0.39724001835542305	0.0	1.2539372409815293	-0.5492982131150923	0.0	0.9714112694722431	-0.15046706483546768	0.0	1.0054273883344336	-0.4027957544001027	0.0	1.0930737761905394	-0.5567677591576156	0.0
2	0.06712328767123288	0.9889416805749481	-0.5994297650151814	0.0	1.0004409494255635	-0.5997950536056065	0.0	1.0108551962246022	-1.0069146633935468	0.0	1.004032125997333	-1.068843650223902	0.0	1.53666650390625	-1.0905761718750002	0.0	1.534264892578125	-1.0655229492187501	0.0	1.259241103691643	-1.0718979251549425	0.0	0.9949800318912311	-0.610742734853207	0.0	1.0164889054070128	-0.989196292008769	0.0	1.0306567169245866	-1.0550109199928024	0.0	1.5178310546875	-1.002380859375	0.0	1.5208022460937505	-0.96375537109375	0.0	0.9620983297146709	-1.0782246306475392	0.0	1.0140453035207735	-0.12522442708297477	0.0	1.1062488562164172	-0.01808787380188877	0.0	1.1237878234965986	-0.016488300116599387	0.0	1.0055523771459673	-0.13577644169520178	0.0	1.0589515110904069	-0.397404128568028	0.0	1.2475935052535947	-0.5484277301916118	0.0	0.9833491892572136	-0.1582142993865017	0.0	1.020083262887602	-0.4076984697333779	0.0	1.1227096119515105	-0.5590599569866948	0.0
3	0.10068493150684932	0.9953475772613728	-0.6024266234108742	0.0	1.0038655847069824	-0.6017679965338908	0.0	1.0143547024526676	-1.0063272346597265	0.0	1.0058776276703398	-1.0722820292299862	0.0	1.53666650390625	-1.0905761718750002	0.0	1.534264892578125	-1.0655229492187501	0.0	1.2592410850002622	-1.0718978693156231	0.0	1.010951099179294	-0.613644486905277	0.0	1.0226130864429515	-0.9893410526844262	0.0	1.0403317981986384	-1.0578490394841584	0.0	1.5178310546875	-1.002380859375	0.0	1.5208022460937505	-0.96375537109375	0.0	0.9620983051729687	-1.0782246238858342	0.0	1.0118614636522214	-0.1305207933127929	0.0	1.0967071840175782	-0.021503202427064425	0.0	1.1158668622178414	-0.018771335523537578	0.0	0.9949250558739134	-0.1410141016381043	0.0	1.0479422316256515	-0.39808289464524116	0.0	1.239551798530667	-0.5513093607248511	0.0	0.996312318067483	-0.16598074812511615	0.0	1.0317100285003598	-0.41173933864250445	0.0	1.1455993489093166	-0.5623226616192196	0.0
4	0.13424657534246576	1.0007162752708048	-0.6050287092138671	0.0	1.0069007774054946	-0.6033705122670777	0.0	1.0210537320478763	-1.0045051698748513	0.0	1.012005367679287	-1.074806655161201	0.0	1.53666650390625	-1.0905761718750002	0.0	1.534264892578125	-1.0655229492187501	0.0	1.2592411220377704	-1.0718977862738657	0.0	1.0221378091962001	-0.6155722601801756	0.0	1.0272845176972032	-0.9887240622517393	0.0	1.04695250553362	-1.060576051281849	0.0	1.5178310546875	-1.002380859375	0.0	1.5208022460937505	-0.96375537109375	0.0	0.962098300299112	-1.078224598021026	0.0	1.009779815276777	-0.1349757943136708	0.0	1.0874817762474849	-0.023513054089790444	0.0	1.107753626699332	-0.02079294044466084	0.0	0.9856824626051275	-0.14598894476656274	0.0	1.0359998251791538	-0.3991863068720428	0.0	1.2288292629067807	-0.5584348038529587	0.0	1.0094728378418059	-0.17346079386042731	0.0	1.0392481124725448	-0.4146031156853558	0.0	1.1587237838989897	-0.5668483106933845	0.0
5	0.1678082191780822	1.0050229415456222	-0.6073772561405788	0.0	1.0097377592036936	-0.6047891274894774	0.0	1.0313413582151398	-1.0007777050502438	0.0	1.0219373752716283	-1.0764004978351442	0.0	1.53666650390625	-1.0905761718750002	0.0	1.534264892578125	-1.0655229492187501	0.0	1.2592412698679407	-1.0718976916138878	0.0	1.0279352904250738	-0.616717325291902	0.0	1.0298012801893288	-0.9867423427832083	0.0	1.0487499489051577	-1.0634658809675914	0.0	1.5178310546875	-1.002380859375	0.0	1.5208022460937505	-0.96375537109375	0.0	0.9620983462557634	-1.0782245427856139	0.0	1.00796441629642	-0.13813512488838026	0.0	1.0787723675789571	-0.024020345058126443	0.0	1.0997126962996882	-0.022480399865989202	0.0	0.978284549985466	-0.15073358951122814	0.0	1.0235220645133256	-0.4004995356963471	0.0	1.2144413780004344	-0.5692724098150835	0.0	1.021195811383256	-0.18009133736959398	0.0	1.0425315312813468	-0.4162194785894914	0.0	1.1606668192435008	-0.5725580223169098	0.0
6	0.20136986301369864	1.0081049042435735	-0.6093919944047103	0.0	1.0123925820110447	-0.6061304569789616	0.0	1.0456413155375552	-0.9948723712753795	0.0	1.0345106362210224	-1.0772108995832956	0.0	1.53666650390625	-1.0905761718750002	0.0	1.534264892578125	-1.0655229492187501	0.0	1.2592415894633464	-1.07189763068207	0.0	1.0278239101492856	-0.6173508870914743	0.0	1.0293396408570923	-0.9831174252880273	0.0	1.0441614988012862	-1.066763731125474	0.0	1.5178310546875	-1.002380859375	0.0	1.5208022460937505	-0.96375537109375	0.0	0.962098485309036	-1.0782244525044926	0.0	1.0064065532143283	-0.13983190152688874	0.0	1.0708403648614648	-0.02331423473105756	0.0	1.0921254914622245	-0.023857709345160637	0.0	0.9727857377794609	-0.1552117503480967	0.0	1.0111340707534142	-0.4018203726360382	0.0	1.195609896807428	-0.5826237487144463	0.0	1.029615188434227	-0.18528599169786328	0.0	1.0421567479019165	-0.4168939365493418	0.0	1.1524565558228697	-0.5789350107303187	0.0
7	0.23493150684931507	1.009980058122819	-0.6107905829351633	0.0	1.0148910400685067	-0.6073856839382028	0.0	1.0642296082324574	-0.9871378488073562	0.0	1.0483866657742738	-1.07736736143297	0.0	1.53666650390625	-1.0905761718750002	0.0	1.534264892578125	-1.0655229492187501	0.0	1.2592421162567216	-1.0718976912828484	0.0	1.0224383494610723	-0.6177340744252983	0.0	1.025469257816688	-0.9781888585869203	0.0	1.0330864109910962	-1.0704417824342574	0.0	1.5178310546875	-1.002380859375	0.0	1.5208022460937505	-0.96375537109375	0.0	0.962098758996271	-1.0782243363369457	0.0	1.004976520700153	-0.14026982707811328	0.0	1.0639989183647305	-0.021898645803013345	0.0	1.0854073904785928	-0.02515278691230271	0.0	0.9687972787871999	-0.15942721127766257	0.0	0.9994484419664541	-0.40305084812052244	0.0	1.1719910513927927	-0.5969866184154384	0.0	1.0337042500420464	-0.1888649131899778	0.0	1.039244191450907	-0.4171839294117824	0.0	1.1371268285887408	-0.5852021255097577	0.0
8	0.2684931506849315	1.0113373185842678	-0.6112167109522607	0.0	1.017543907485331	-0.6084222486255894	0.0	1.0864430224950934	-0.9783199646754812	0.0	1.0621753108482157	-1.0768556438949475	0.0	1.53666650390625	-1.0905761718750002	0.0	1.534264892578125	-1.0655229492187501	0.0	1.2592428006512404	-1.0718980066821264	0.0	1.0146227466735096	-0.6180068385037677	0.0	1.0191315014990883	-0.9727530639981434	0.0	1.018040965082953	-1.0741414067154056	0.0	1.5178310546875	-1.002380859375	0.0	1.5208022460937505	-0.96375537109375	0.0	0.9620991799391685	-1.078224233391317	0.0	1.0035881618837033	-0.13995851843499155	0.0	1.0585242469969167	-0.0202595472873283	0.0	1.079846747479487	-0.02677138612010422	0.0	0.9655922243515415	-0.16346304397767758	0.0	0.9887882024995189	-0.4041661247415162	0.0	1.1438460761546632	-0.610790701338861	0.0	1.0341587272961172	-0.1913277110712793	0.0	1.0354822663791674	-0.41757515656507815	0.0	1.1187457418445632	-0.5905704358585175	0.0
